<?xml version="1.0" encoding="UTF-8" standalone="no"?>
<svg width="221px" height="223px" viewBox="0 0 221 223" version="1.1" xmlns="http://www.w3.org/2000/svg" xmlns:xlink="http://www.w3.org/1999/xlink" xmlns:sketch="http://www.bohemiancoding.com/sketch/ns">
    <!-- Generator: Sketch Beta 3.2.2 (9983) - http://www.bohemiancoding.com/sketch -->
    <title>TCM-logo</title>
    <desc>Created with Sketch Beta.</desc>
    <defs></defs>
    <g id="Page-1" stroke="none" stroke-width="1" fill="none" fill-rule="evenodd" sketch:type="MSPage">
        <g id="TCM-logo" sketch:type="MSLayerGroup" fill="#FFFFFF">
            <path d="M99.976,31.209 L99.976,38.494 L87.668,38.494 L87.668,72.351 L79.016,72.351 L79.016,38.494 L66.65,38.494 L66.65,31.209 L99.976,31.209" id="Fill-1" sketch:type="MSShapeGroup"></path>
            <path d="M78.903,79.826 L87.445,79.826 L87.445,120.968 L78.903,120.968 L78.903,79.826 Z" id="Fill-2" sketch:type="MSShapeGroup"></path>
            <path d="M117.436,72.351 L117.436,31.209 L125.977,31.209 L125.977,46.895 L141.971,46.895 L141.971,31.209 L150.512,31.209 L150.512,72.351 L141.971,72.351 L141.971,53.985 L125.977,53.985 L125.977,72.351 L117.436,72.351" id="Fill-3" sketch:type="MSShapeGroup"></path>
            <path d="M126.236,108.268 C126.502,110.147 127.023,111.552 127.803,112.482 C129.228,114.176 131.67,115.022 135.127,115.022 C137.197,115.022 138.879,114.799 140.172,114.352 C142.623,113.497 143.848,111.906 143.848,109.58 C143.848,108.222 143.248,107.17 142.047,106.426 C140.846,105.7 138.941,105.058 136.334,104.5 L131.881,103.523 C127.504,102.556 124.496,101.504 122.857,100.369 C120.086,98.471 118.7,95.503 118.7,91.465 C118.7,87.781 120.055,84.72 122.768,82.282 C125.48,79.845 129.465,78.626 134.721,78.626 C139.109,78.626 142.853,79.775 145.951,82.073 C149.051,84.372 150.676,87.707 150.826,92.079 L142.565,92.079 C142.412,89.605 141.305,87.846 139.244,86.804 C137.871,86.116 136.164,85.771 134.123,85.771 C131.852,85.771 130.041,86.218 128.685,87.111 C127.332,88.004 126.654,89.251 126.654,90.851 C126.654,92.321 127.322,93.419 128.658,94.144 C129.516,94.629 131.338,95.196 134.123,95.847 L141.344,97.55 C144.508,98.294 146.879,99.29 148.459,100.537 C150.912,102.472 152.137,105.272 152.137,108.938 C152.137,112.697 150.684,115.818 147.779,118.303 C144.873,120.786 140.768,122.028 135.465,122.028 C130.047,122.028 125.787,120.805 122.684,118.357 C119.58,115.912 118.03,112.548 118.03,108.268 L126.236,108.268" id="Fill-4" sketch:type="MSShapeGroup"></path>
            <path d="M122.378,171.384 L85.685,146.89 L38.554,146.89 L38.554,0.902 L184.534,0.902 L184.534,146.89 L133.423,146.89 L133.423,137.157 L174.802,137.157 L174.802,10.634 L48.286,10.634 L48.286,137.157 L88.636,137.157 L127.782,163.29 L122.378,171.384" id="Fill-5" sketch:type="MSShapeGroup"></path>
            <path d="M16.929,206.685 C15.369,205.074 13.211,204.086 10.949,204.086 C6.581,204.086 3.044,207.883 3.044,212.197 C3.044,216.514 6.607,220.31 11.001,220.31 C13.211,220.31 15.369,219.269 16.929,217.711 L16.929,220.414 C15.239,221.637 13.159,222.338 11.079,222.338 C5.54,222.338 0.86,217.84 0.86,212.275 C0.86,206.66 5.462,202.059 11.079,202.059 C13.263,202.059 15.187,202.682 16.929,203.982 L16.929,206.685" id="Fill-6" sketch:type="MSShapeGroup"></path>
            <path d="M38.145,210.352 L38.145,202.397 L40.329,202.397 L40.329,222 L38.145,222 L38.145,212.381 L28.108,212.381 L28.108,222 L25.924,222 L25.924,202.397 L28.108,202.397 L28.108,210.352 L38.145,210.352" id="Fill-7" sketch:type="MSShapeGroup"></path>
            <path d="M52.522,216.435 L50.156,222 L47.764,222 L56.812,201.459 L65.626,222 L63.208,222 L60.894,216.435 L52.522,216.435 L52.522,216.435 Z M56.76,206.557 L53.406,214.408 L60.037,214.408 L56.76,206.557 L56.76,206.557 Z" id="Fill-8" sketch:type="MSShapeGroup"></path>
            <path d="M73.088,201.565 L88.376,217.58 L88.376,202.397 L90.56,202.397 L90.56,222.885 L75.272,206.894 L75.272,222 L73.088,222 L73.088,201.565" id="Fill-9" sketch:type="MSShapeGroup"></path>
            <path d="M118.069,212.147 C118.121,214.799 117.834,216.982 116.041,219.062 C114.247,221.143 111.516,222.338 108.786,222.338 C103.274,222.338 98.698,217.762 98.698,212.25 C98.698,206.635 103.274,202.059 108.916,202.059 C112.348,202.059 115.13,203.592 117.21,206.295 L115.625,207.777 C113.987,205.463 111.776,204.086 108.89,204.086 C104.418,204.086 100.881,207.855 100.881,212.275 C100.881,214.355 101.713,216.332 103.17,217.815 C104.6,219.244 106.68,220.31 108.734,220.31 C112.14,220.31 115.728,217.815 115.728,214.174 L109.904,214.174 L109.904,212.147 L118.069,212.147" id="Fill-10" sketch:type="MSShapeGroup"></path>
            <path d="M126.361,202.397 L136.527,202.397 L136.527,204.424 L128.545,204.424 L128.545,210.248 L136.293,210.248 L136.293,212.275 L128.545,212.275 L128.545,219.973 L136.527,219.973 L136.527,222 L126.361,222 L126.361,202.397" id="Fill-11" sketch:type="MSShapeGroup"></path>
            <path d="M145.445,202.397 L149.137,202.397 C152.076,202.397 154.467,202.785 156.781,204.762 C159.018,206.685 160.031,209.312 160.031,212.225 C160.031,215.084 158.992,217.605 156.834,219.531 C154.494,221.611 152.154,222 149.086,222 L145.445,222 L145.445,202.397 L145.445,202.397 Z M149.215,219.973 C151.607,219.973 153.609,219.635 155.404,217.943 C157.016,216.435 157.848,214.383 157.848,212.197 C157.848,209.963 156.99,207.805 155.299,206.322 C153.506,204.736 151.529,204.424 149.215,204.424 L147.629,204.424 L147.629,219.973 L149.215,219.973 L149.215,219.973 Z" id="Fill-12" sketch:type="MSShapeGroup"></path>
            <path d="M184.029,201.277 L191.154,217.736 L198.305,201.277 L202.281,222 L200.047,222 L197.523,208.74 L197.473,208.74 L191.154,222.807 L184.861,208.74 L184.809,208.74 L182.287,222 L180.051,222 L184.029,201.277" id="Fill-13" sketch:type="MSShapeGroup"></path>
            <path d="M209.977,202.397 L220.145,202.397 L220.145,204.424 L212.162,204.424 L212.162,210.248 L219.91,210.248 L219.91,212.275 L212.162,212.275 L212.162,219.973 L220.145,219.973 L220.145,222 L209.977,222 L209.977,202.397" id="Fill-14" sketch:type="MSShapeGroup"></path>
        </g>
    </g>
</svg>